<mxfile host="www.draw.io" modified="2019-12-25T22:54:58.657Z" agent="Mozilla/5.0 (Windows NT 10.0; Win64; x64) AppleWebKit/537.36 (KHTML, like Gecko) Chrome/79.0.3945.88 Safari/537.36" etag="7M-4ODmc3Fp5gmnc2O2A" version="12.4.3" type="github" pages="1">
  <diagram id="rTTQOPHwliuGtmtd_5n9" name="Page-1">
    <mxGraphModel dx="961" dy="619" grid="1" gridSize="10" guides="1" tooltips="1" connect="1" arrows="1" fold="1" page="1" pageScale="1" pageWidth="827" pageHeight="1169" math="0" shadow="0">
      <root>
        <mxCell id="0"/>
        <mxCell id="1" parent="0"/>
        <mxCell id="gKGMpdIczMpTECxThuMy-7" style="edgeStyle=orthogonalEdgeStyle;rounded=0;orthogonalLoop=1;jettySize=auto;html=1;entryX=0.5;entryY=0;entryDx=0;entryDy=0;entryPerimeter=0;" edge="1" parent="1" source="gKGMpdIczMpTECxThuMy-1" target="gKGMpdIczMpTECxThuMy-2">
          <mxGeometry relative="1" as="geometry"/>
        </mxCell>
        <mxCell id="gKGMpdIczMpTECxThuMy-1" value="Route 53" style="outlineConnect=0;dashed=0;verticalLabelPosition=bottom;verticalAlign=top;align=center;html=1;shape=mxgraph.aws3.route_53;fillColor=#F58536;gradientColor=none;" vertex="1" parent="1">
          <mxGeometry x="378" y="30" width="70.5" height="85.5" as="geometry"/>
        </mxCell>
        <mxCell id="gKGMpdIczMpTECxThuMy-5" style="edgeStyle=orthogonalEdgeStyle;rounded=0;orthogonalLoop=1;jettySize=auto;html=1;entryX=0.5;entryY=0;entryDx=0;entryDy=0;entryPerimeter=0;" edge="1" parent="1" source="gKGMpdIczMpTECxThuMy-2" target="gKGMpdIczMpTECxThuMy-3">
          <mxGeometry relative="1" as="geometry"/>
        </mxCell>
        <mxCell id="gKGMpdIczMpTECxThuMy-6" style="edgeStyle=orthogonalEdgeStyle;rounded=0;orthogonalLoop=1;jettySize=auto;html=1;entryX=0.5;entryY=0;entryDx=0;entryDy=0;entryPerimeter=0;" edge="1" parent="1" source="gKGMpdIczMpTECxThuMy-2" target="gKGMpdIczMpTECxThuMy-4">
          <mxGeometry relative="1" as="geometry"/>
        </mxCell>
        <mxCell id="gKGMpdIczMpTECxThuMy-2" value="Load Balancer" style="outlineConnect=0;dashed=0;verticalLabelPosition=bottom;verticalAlign=top;align=center;html=1;shape=mxgraph.aws3.classic_load_balancer;fillColor=#F58534;gradientColor=none;" vertex="1" parent="1">
          <mxGeometry x="378" y="210" width="69" height="72" as="geometry"/>
        </mxCell>
        <mxCell id="gKGMpdIczMpTECxThuMy-3" value="EC2" style="outlineConnect=0;dashed=0;verticalLabelPosition=bottom;verticalAlign=top;align=center;html=1;shape=mxgraph.aws3.ec2;fillColor=#F58534;gradientColor=none;" vertex="1" parent="1">
          <mxGeometry x="140" y="410" width="76.5" height="93" as="geometry"/>
        </mxCell>
        <mxCell id="gKGMpdIczMpTECxThuMy-4" value="EC2" style="outlineConnect=0;dashed=0;verticalLabelPosition=bottom;verticalAlign=top;align=center;html=1;shape=mxgraph.aws3.ec2;fillColor=#F58534;gradientColor=none;" vertex="1" parent="1">
          <mxGeometry x="610" y="420" width="76.5" height="93" as="geometry"/>
        </mxCell>
      </root>
    </mxGraphModel>
  </diagram>
</mxfile>
